# xmcd
#
# Track frame offsets: 
#        150
#        11472
#        25225
#        38247
#        49667
#        61735
#        74640
#        87612
#        99435
#        112475
#        124477
#        137490
#        148772
#        161445
#        171902
#        183630
#        195637
#
# Disc length: 2768 seconds
#
# Revision: 0
# Processed by: cddbd v1.5.2PL0 Copyright (c) Steve Scherf et al.
# Submitted via: ExactAudioCopy v1.0b3
#
DISCID=fc0ace11
DTITLE=Robert Johnson - King of the Delta Blues Singers
DYEAR=1961
DGENRE=Blues
TTITLE0=Cross Road Blues
TTITLE1=Terraplane Blues
TTITLE2=Come On in My Kitchen
TTITLE3=Walkin' Blues
TTITLE4=Last Fair Deal Gone Down
TTITLE5=32-20 Blues
TTITLE6=Kind Hearted Woman Blues
TTITLE7=If I Had Possession Over Judgement Day
TTITLE8=Preachin' Blues (Up Jumped The Devil)
TTITLE9=When You Got a Good Friend
TTITLE10=Ramblin' On My Mind
TTITLE11=Stones in My Passway
TTITLE12=Traveling Riverside Blues
TTITLE13=Milkcow's Calf Blues
TTITLE14=Me and the Devil Blues
TTITLE15=Hell Hound on My Trail
TTITLE16=Traveling Riverside Blues (alternate take)[Bonus track]
EXTD=
EXTT0=
EXTT1=
EXTT2=
EXTT3=
EXTT4=
EXTT5=
EXTT6=
EXTT7=
EXTT8=
EXTT9=
EXTT10=
EXTT11=
EXTT12=
EXTT13=
EXTT14=
EXTT15=
EXTT16=
PLAYORDER=
